<svg xmlns="http://www.w3.org/2000/svg" xml:space="preserve" style="fill-rule:evenodd;clip-rule:evenodd;stroke-linejoin:round;stroke-miterlimit:2" viewBox="0 0 1081 1081"><path d="M0 0h1080v1080H0z" style="fill:none" transform="translate(.5 .28)"/><path d="m5882.72 583.496 38.29 15.259 22.89-11.02 77.14 24.584-37.3 22.648s102.57 10.412 61.88 110.442-184.26 56.447-206.84 82.393c-53.38 61.343-126.45 60.344-145.54 59.778-59.55-1.768-40.72-23.445-11.93-27.044 16.33-2.041 52.25 4.257 74.56-11.99l-79.52-12.153-34.05 22.692-74.26-24.202z" style="fill:#272b30;fill-opacity:.3" transform="translate(-5018.06 -1.23)"/><path d="m5167.27 774.453-1.84-9.228-.51-1.185-.55-5.64-2.95-4.66 1.07-4.856-2.22-3.865.43-3.506-2.33-3.692.46-4.074-1.05-3.038-.92-6.7 430.82 132.8 10.23 56.169z" style="fill:#dbdcdc" transform="rotate(5.723 1479.67 -38406.69)scale(.79861)"/><path d="M6052.47 576.777c7.53 10.785 5.6 26.08 3.87 40.174l-385.88 312.63-2.35-6.857 1.6-2.113-1.15-1.939.32-2.458-1.43-2.876 1.42-2.609-1.41-3.624.48-4.608-2.05-3.917 1.29-3.66-.84-3.764-1.21-6.603z" style="fill:#c6c6c6" transform="translate(-3976.56 90.8)scale(.79861)"/><path d="m5612.96 992.145 6.07 2.478 381.36-309.653c.99-13.62.56-26.187-7.21-34.021l-3.81 1.957c8.17 7.387 8.28 19.5 6.51 32.227z" style="fill:#e25d3a" transform="translate(-3931.82 33.766)scale(.79861)"/><g transform="translate(-3931.82 33.766)scale(.79861)"><path d="M5607.56 958.067 5192.4 771.67l351.61-244.648 452.23 114.381z" style="fill:#fb6740"/><clipPath id="a"><path d="M5607.56 958.067 5192.4 771.67l351.61-244.648 452.23 114.381z"/></clipPath><g clip-path="url(#a)"><path d="m5921.09 605.252 125.92 35.881s-88.55 131.501-99.81 140.715-236.49 171.989-236.49 171.989l-81.39-81.899z" style="fill:#272b30;fill-opacity:.3"/></g></g><path d="m5193.09 780.444 416.31 186.781 383.62-315.714c7.16 8.846 8.57 21.366 6.93 33.356L5615 997.74l-419.55-183.094.59 5.896 419.99 182.948 390.96-317.149c-2.46-14.787-2.94-31.678-10.75-45.208l-388.96 315.755-414.88-185.584zm-32.43-12.331 7.23-3.88 1.03 7.397z" style="fill:#fb6740" transform="translate(-3931.82 33.766)scale(.79861)"/><path d="m5167.27 774.453.3-8.494-.5-1.185.61-5.238-1.66-5.567 1.37-4.454-1.4-4.292-1.2-4.207 1.49-2.693-.43-5.192-1.06-3.038.26-6.128 503.02 159.687 4.11 47.564z" style="fill:#dbdcdc" transform="translate(-3931.82 33.766)scale(.79861)"/><path d="M5973.52 572.191c7.53 10.784 9.73 23.475 7.99 37.569l-311.05 319.821-2.35-6.857 1.6-2.113-1.15-1.939.32-2.458-1.43-2.876 1.42-2.609-1.41-3.624.48-4.608-2.05-3.917 1.29-3.66-.84-3.764-1.21-6.603z" style="fill:#c6c6c6" transform="translate(-3931.82 33.766)scale(.79861)"/><path d="m5679.74 927.901-513.48-159.969-3.71 1.527 514.61 163.098z" style="fill:#fb6740" transform="translate(-3931.82 33.766)scale(.79861)"/><path d="m5679.74 928.082-10.03-3.071 306.37-319.248c.28-11.376-2.77-20.636-6.75-30.168l6.05-4.647 7.41 37.73z" style="fill:#e25d3a" transform="translate(-3931.82 33.766)scale(.79861)"/><g transform="translate(-3931.82 33.766)scale(.79861)"><path d="m5160.66 718.694 505.79 161.85 309.41-317.749-404.62-104.727z" style="fill:#fb6740"/><clipPath id="b"><path d="m5160.66 718.694 505.79 161.85 309.41-317.749-404.62-104.727z"/></clipPath><g clip-path="url(#b)"><path d="M5346.3 677.651c45.7 16.728 176.7 41.71 230.32 54.505s60.94 11.577 76.78 20.717-106.63 58.494-113.34 78.602c-6.7 20.107 16.46 57.885 79.22 67.634 62.75 9.749 56.05 37.206 145.01-18.565s113.94-102.689 159.03-173.37c45.09-70.68-2.43-52.401-12.79-87.132s-28.64-86.965-75.56-88.572c-46.91-1.607-291.25-5.872-291.25-5.872S5300.6 660.923 5346.3 677.651" style="fill:#272b30;fill-opacity:.3"/></g></g><path d="M5160.66 718.669v6.459L5668.9 887.45s301.4-314.164 304-313.765c2.59.4 9.38 29.35 8.18 32.745-1.19 3.394-305.44 323.49-305.44 323.49l-514.98-161.835v6.337l515.46 160.86 309.54-326.107c-.12-18.326-3.69-33.585-9.8-46.586l-309.53 316.955z" style="fill:#fb6740" transform="translate(-3931.82 33.766)scale(.79861)"/><g transform="translate(-3931.82 33.766)scale(.79861)"><path d="M5403.08 576.377c94.12-12.82 83.16 24.214 143 21.295 56.8-2.771 122.24-25.116 142.87-21.295 42.38 7.847 122.73 78.666 134.9 46.97 18.64-48.542 44.8-130.69 18.68-172.299-20.59-32.812-46.71-56.605-79.54-74.599-70.19-38.469-114.29-30.888-213.38-22.567-93.54 7.855-152.81 51.842-186.85 76.548-34.05 24.705-6.19 152.281 40.32 145.947" style="fill:#dbdcdc"/><clipPath id="c"><path d="M5403.08 576.377c94.12-12.82 83.16 24.214 143 21.295 56.8-2.771 122.24-25.116 142.87-21.295 42.38 7.847 122.73 78.666 134.9 46.97 18.64-48.542 44.8-130.69 18.68-172.299-20.59-32.812-46.71-56.605-79.54-74.599-70.19-38.469-114.29-30.888-213.38-22.567-93.54 7.855-152.81 51.842-186.85 76.548-34.05 24.705-6.19 152.281 40.32 145.947"/></clipPath><g clip-path="url(#c)"><path d="M5574.85 495.053c11.53-2.129 61.79-43.292 60.02-26.27-2.34 22.475 264.79 47.84 262.75 55.366-7.46 27.494-85.68 142.919-101.45 151.819-24.51 13.826-282.87-62.217-310.52-58.545s-91.67-42.411-97.33-78.86 163.04-39.173 186.53-43.51" style="fill:#c6c6c6"/><path d="M5538.35 545.307c4.92 3.138-25.05 68.444-52.7 72.116s-91.67-42.411-97.33-78.86 129.88-6.092 150.03 6.744" style="fill:#272b30;fill-opacity:.1"/></g></g><path d="M5323.99 626.324c-8.18 12.589-10.04 26.275-7.74 31.87 2.31 5.595 10.68 15.946 19.89 18.25 9.22 2.304 35.48-4.493 40.08-5.809 4.61-1.317 3.07-18.461 5.37-28.006s-7.81-15.135-7.81-15.135-41-14.705-49.79-1.17" style="fill:#c9cbcb" transform="rotate(19.159 2267.488 -11177.679)scale(.79861)"/><g transform="translate(-3931.82 33.766)scale(.79861)"><path d="M5337.98 671.293c-2.02-2.844-1.17-6.886-.55-7.404-2.42-2.942-1-8.226 1.2-9.511-1.09-1.11-1.48-4.263 2.5-7.55.51-2.44 3.56-8.097 12.26-8.15 7.82-.049 19.11-1.713 27.81-6.766 46.78-27.185 107.13-63.105 140.23-66.44 26.99-2.721-49.2-1.1-85.26-68.985-16.72-31.474-11.76-78.61 13.42-88.08 45.72-17.197 71.69-4.035 84.72 11.744 23.91 28.94 38.1 67.605 48.64 96.217 20.21 54.875 25.03 82.18-17.95 89.135-32.39 5.242-145.93 41.979-171.57 55.4-25.63 13.422-39.14 33.403-55.45 10.39" style="fill:#dbdcdc"/><clipPath id="d"><path d="M5337.98 671.293c-2.02-2.844-1.17-6.886-.55-7.404-2.42-2.942-1-8.226 1.2-9.511-1.09-1.11-1.48-4.263 2.5-7.55.51-2.44 3.56-8.097 12.26-8.15 7.82-.049 19.11-1.713 27.81-6.766 46.78-27.185 107.13-63.105 140.23-66.44 26.99-2.721-49.2-1.1-85.26-68.985-16.72-31.474-11.76-78.61 13.42-88.08 45.72-17.197 71.69-4.035 84.72 11.744 23.91 28.94 38.1 67.605 48.64 96.217 20.21 54.875 25.03 82.18-17.95 89.135-32.39 5.242-145.93 41.979-171.57 55.4-25.63 13.422-39.14 33.403-55.45 10.39"/></clipPath><g clip-path="url(#d)"><path d="M5409.81 665.668c-2.24-.631-4.45.192-5.09-2.452-.6-2.502 2.3-2.432 4.4-2.032 2.1.401 7.43 1.936 7.41 3.633-.02 2.095-3.49 1.765-6.72.851" style="fill:#f27baa" transform="matrix(1.44261 -.99365 .97638 1.44241 -3096.76 5080.64)"/><path d="M5409.81 665.668c-2.24-.631-4.45.192-5.09-2.452-.6-2.502 2.3-2.432 4.4-2.032 2.1.401 7.43 1.936 7.41 3.633-.02 2.095-3.49 1.765-6.72.851" style="fill:#f27baa" transform="matrix(1.38545 -1.07323 1.05458 1.38526 -2839.63 5554.7)"/><path d="M5409.81 665.668c-2.24-.631-4.45.192-5.09-2.452-.6-2.502 2.3-2.432 4.4-2.032 2.1.401 7.43 1.936 7.41 3.633-.02 2.095-3.49 1.765-6.72.851" style="fill:#f27baa" transform="matrix(1.07908 -.93424 .9281 1.09079 -1092.9 5002.02)"/><path d="M5409.81 665.668c-2.24-.631-4.45.192-5.09-2.452-.6-2.502 2.3-2.432 4.4-2.032 2.1.401 7.43 1.936 7.41 3.633-.02 2.095-3.49 1.765-6.72.851" style="fill:#f27baa" transform="matrix(1.46131 -.74489 .90828 1.8131 -3149.98 3481.27)"/><path d="M5419.06 667.928c-2.88-.986-3.68-2.554-1.97-4.155 1.72-1.601-.33-1.553-1.91-3.043-2.19-2.078 1.09-7.811 3.5-8.611 2.4-.801 2.16-.186 3.2-.026s2.29-3.899 5.33-2.897 3.45 3.496 2.49 5.699-1.97 2.236-3.98 2.797c-2 .56-1.6 2.001-1.52 3.202s.3 2.751-1.14 4.673c-1.44 1.921-2.72 2.8-4 2.361" style="fill:#f27baa" transform="matrix(1.06573 -.5632 .45505 .86107 -700.139 3147.29)"/><path d="M5600.6 566.389c-24.93-71.144-13.96-83.503-59.49-70.135-21.97 6.449-65.3-40.118-89.76-36.818-22.55 3.044-55.61 136.354-63.27 145.9-9.03 11.251-23.78 25.116-9.22 29.07 4.12 1.119-26.22 10.176-29.72 15.074-8.86 12.399-4.2 26.777-3.12 30.078 3.84 11.7 92.74-7.196 127-20.112 34.27-12.915 113.48-47.655 122.01-58.291s13.28-12.728 5.57-34.766" style="fill-opacity:.1"/></g></g><g transform="rotate(12.436 2320.69 -17601.586)scale(.79861)"><path d="M5828.47 583.587c-49.74 68.445-85.67 56.851-114.5 63.106-86.68 18.804-48.94 33.157-89.74 35.557s-141.3-37.633-154.43-42.14c-7.55-2.593-14.79-5.234-12.55-12.654-3.95-.633-6.32-10.071-2.32-11.696-2.11-2.518-4.51-8.309 1.7-12.378-1.82-4.964 1.91-9.232 3.93-11.755 8.13-10.116 24.08-3.574 42.07 14.765 7.24 7.378 69.09 22.945 90.92 13.769s-12.25-59.17 23.15-92.129 97.72-61.329 136.78-72.316c39.07-10.986 113.36 75.077 74.99 127.871" style="fill:#dbdcdc"/><clipPath id="e"><path d="M5828.47 583.587c-49.74 68.445-85.67 56.851-114.5 63.106-86.68 18.804-48.94 33.157-89.74 35.557s-141.3-37.633-154.43-42.14c-7.55-2.593-14.79-5.234-12.55-12.654-3.95-.633-6.32-10.071-2.32-11.696-2.11-2.518-4.51-8.309 1.7-12.378-1.82-4.964 1.91-9.232 3.93-11.755 8.13-10.116 24.08-3.574 42.07 14.765 7.24 7.378 69.09 22.945 90.92 13.769s-12.25-59.17 23.15-92.129 97.72-61.329 136.78-72.316c39.07-10.986 113.36 75.077 74.99 127.871"/></clipPath><g clip-path="url(#e)"><path d="M5410.43 666.719c-2.24-.631-5.07-.859-5.71-3.503-.6-2.502 1.7-2.1 3.8-1.7s8.16.864 8.01 3.301c-.19 3.275-2.87 2.815-6.1 1.902" style="fill:#f27baa" transform="rotate(13.39 8948.925 -12964.552)scale(1.61003)"/><path d="M5411.01 665.832c-2.24-.631-5.65.028-6.29-2.616-.6-2.502 1.68-2.349 3.79-1.949 2.1.4 6.97 1.03 7.18 2.507.45 3.249-1.45 2.971-4.68 2.058" style="fill:#f27baa" transform="rotate(6.718 10876.128 -26794.512)scale(1.61002)"/><path d="M5410.46 666.631c-2.57-.084-6.28 1.137-6.91-1.507-.6-2.502 3.7-2.82 5.83-2.588 1.98.216 5.35.131 5.73 1.908.68 3.209-1.29 2.297-4.65 2.187" style="fill:#f27baa" transform="rotate(19.223 8435.495 -8740.843)scale(1.61003)"/><path d="M5410.43 666.719c-2.24-.631-5.07-.859-5.71-3.503-.6-2.502 2.21-3.703 4.31-3.303 2.1.401 7.65 2.467 7.5 4.904-.19 3.275-2.87 2.815-6.1 1.902" style="fill:#f27baa" transform="matrix(1.3962 .95548 -.6924 1.01178 -1626.24 -5238.88)"/><path d="M5422.2 669.504c-2.87-.986-5.3-3.817-3.58-5.418 1.71-1.601-.29-1.761-2.85-3.042-2.57-1.281-1.6-8.887.8-9.688s3.57-.634 4.61-.474 2.11-4.012 5.16-3.01c3.04 1.002 5.94 6.083 4.98 8.286s-1.98 2.237-3.98 2.797c-2 .561-1.6 2.002-1.52 3.203s1.83 3.064.38 4.985c-1.44 1.922-2.72 2.8-4 2.361" style="fill:#f27baa" transform="matrix(.96092 -.04834 .06494 1.29073 231.359 39.108)"/><path d="M5507.6 587.384c35.01 6.575 68.78-25.961 78.25-32.551 9.47-6.589 56.51-38.308 69.28-14.833s-5.03 86.738 2.79 95.387c2.31 2.551 188.42-83.863 189.4-79.952.66 2.602 3.89 101.054-16.79 114.006-53.62 33.582-190.82 31.394-197.1 38.074-12.36 13.127-135.3-31.757-150.95-38.885s-82.37-59.433-74.14-90.733c8.24-31.301 27.19-42.009 58.9-32.124s5.35 35.036 40.36 41.611" style="fill-opacity:.2" transform="rotate(-12.436 5561.557 532.201)"/></g></g><g transform="translate(-3931.82 33.766)scale(.79861)"><path d="M5828.47 583.587c-49.74 68.445-46.78 40.796-123.07 46.918-34.06 2.734-56.33 15.965-74.17 29.99-22.13 17.39-37.46 36-60.04 37.328-40.8 2.4-117.82-14.094-141.81-24.049-6.8-2.821-22.86 3.026-28.79-2.243-1.29-1.148-2.49-4.779-3.19-7.508-7.75-2.11-8.79-9.878-3.41-12.201-3.46-2.124-5.76-8.877 3.68-10.739-1.28-4.646.11-10.039 2.24-11.305 11.03-6.569 35.67.923 48.94 4.466 20.08 5.358 87.12 18.688 108.95 9.512 21.83-9.177 1.88-104.485 37.28-137.444 10.76-10.018 20.09-17.707 35.1-32.499 105.54-103.968 87.25-93.597 152.91-68.934 37.98 14.27 83.75 125.914 45.38 178.708" style="fill:#dbdcdc"/><clipPath id="f"><path d="M5828.47 583.587c-49.74 68.445-46.78 40.796-123.07 46.918-34.06 2.734-56.33 15.965-74.17 29.99-22.13 17.39-37.46 36-60.04 37.328-40.8 2.4-117.82-14.094-141.81-24.049-6.8-2.821-22.86 3.026-28.79-2.243-1.29-1.148-2.49-4.779-3.19-7.508-7.75-2.11-8.79-9.878-3.41-12.201-3.46-2.124-5.76-8.877 3.68-10.739-1.28-4.646.11-10.039 2.24-11.305 11.03-6.569 35.67.923 48.94 4.466 20.08 5.358 87.12 18.688 108.95 9.512 21.83-9.177 1.88-104.485 37.28-137.444 10.76-10.018 20.09-17.707 35.1-32.499 105.54-103.968 87.25-93.597 152.91-68.934 37.98 14.27 83.75 125.914 45.38 178.708"/></clipPath><g clip-path="url(#f)"><path d="M5409.81 665.668c-2.24-.631-4.45.192-5.09-2.452-.6-2.502 2.3-2.432 4.4-2.032 2.1.401 7.43 1.936 7.41 3.633-.02 2.095-3.49 1.765-6.72.851" style="fill:#f27baa" transform="matrix(1.58009 -.30902 .30902 1.58009 -3344.31 1288.29)"/><path d="M5410.14 665.712c-2.23-.631-4.78.148-5.42-2.496-.6-2.502 2.41-2.479 4.51-2.079s7.45 1.243 7.3 3.68c-.19 3.275-3.16 1.808-6.39.895" style="fill:#f27baa" transform="rotate(-12.504 5180.713 15957.153)scale(1.61002)"/><path d="M5410.14 665.625c-2.23-.631-4.78.235-5.42-2.409-.6-2.502 2.26-2.609 4.37-2.209 2.1.4 7.59 1.373 7.44 3.81-.19 3.275-3.16 1.722-6.39.808" style="fill:#f27baa" transform="translate(-3305.59 -419.881)scale(1.61003)"/><path d="M5410.52 665.502c-2.24-.631-5.16.358-5.8-2.286-.6-2.502 2.52-2.536 4.62-2.136s7.34 1.3 7.19 3.737c-.19 3.275-2.78 1.599-6.01.685" style="fill:#f27baa" transform="matrix(1.60967 .0339 -.0339 1.60967 -3277.33 -610.855)"/><path d="M5422.2 669.504c-2.87-.986-5.3-3.817-3.58-5.418 1.71-1.601-.29-1.761-2.85-3.042-2.57-1.281-1.6-8.887.8-9.688s3.57-.634 4.61-.474 2.11-4.012 5.16-3.01c3.04 1.002 5.94 6.083 4.98 8.286s-1.98 2.237-3.98 2.797c-2 .561-1.6 2.002-1.52 3.203s1.83 3.064.38 4.985c-1.44 1.922-2.72 2.8-4 2.361" style="fill:#f27baa" transform="matrix(1.17927 -.47892 .47863 1.17856 -1279.39 2476.6)"/><path d="M5766.4 392.076c12.87 66.925 22.4 60.19-4.51 107.605-37.67 66.371-119.74 44.064-134.12 57.578-14.38 13.513-39.37 91.247-69.97 94.187-28.59 2.748-69.16 5.106-86.54-2.617-17.37-7.723-58.8-39.246-59.44-25.732s23.26 41.829 24.5 57.916c1.24 16.088 15.4 32.176 48.86 36.037s106.18 7.722 139-9.009 8.36-58.56 52.77-44.402c44.4 14.157 73.36 65.201 131.27 12.329 24.58-22.431 81.51-98.575 67.3-162.654-19.29-86.955-116.54-159.769-109.12-121.238" style="fill-opacity:.1"/></g></g><path d="M5632.87 659.214c4.48-1.489 11.16-4.151 11.3-4.72-4.68 1.854-8.27 2.913-10 2.616 2.58-.463 5.79-1.924 9.39-4.001-2.27.45-4.33.772-3.62-.538 1.12.067 3.12-.463 5.92-1.539-2.05.28-3.48.103-3.38-1.231l-9.05 5.232s-5.52 5.832-.56 4.181" style="fill:#c6c6c6" transform="matrix(1.75821 .13513 -.12119 1.57685 -9298.16 -1210.62)"/><path d="M5632.87 659.214c4.48-1.489 11.16-4.151 11.3-4.72-4.68 1.854-8.27 2.913-10 2.616 2.58-.463 5.79-1.924 9.39-4.001-2.27.45-4.33.772-3.62-.538 1.12.067 3.12-.463 5.92-1.539-2.05.28-3.48.103-3.38-1.231l-9.05 5.232s-5.52 5.832-.56 4.181" style="fill:#dbdcdc" transform="matrix(1.17809 -1.31212 -1.17677 -1.05658 -5425.83 8417.01)"/><path d="M5632.87 659.214c4.48-1.489 11.16-4.151 11.3-4.72-4.68 1.854-8.27 2.913-10 2.616 2.58-.463 5.79-1.924 9.39-4.001-2.27.45-4.33.772-3.62-.538 1.12.067 3.12-.463 5.92-1.539-2.05.28-3.48.103-3.38-1.231l-9.05 5.232s-5.52 5.832-.56 4.181" style="fill:#fb6740" transform="matrix(-.95481 -.21937 .16592 -.7222 5498.65 2131.59)"/><path d="M5632.87 659.214c4.48-1.489 11.16-4.151 11.3-4.72-4.68 1.854-8.27 2.913-10 2.616 2.58-.463 5.79-1.924 9.39-4.001-2.27.45-4.33.772-3.62-.538 1.12.067 3.12-.463 5.92-1.539-2.05.28-3.48.103-3.38-1.231l-9.05 5.232s-5.52 5.832-.56 4.181" style="fill:#dbdcdc" transform="matrix(.92212 1.50308 -1.34804 .827 -3812.11 -8647.28)"/><path d="M5632.87 659.214c4.42-2.331 5.7-2.45 5.85-2.807-4.71 1.203-2.84.533-4.55.703 2.58-.463 5.79-1.924 9.39-4.001.1-.308-3.71 1.987-5.54 1.482 1.12.068 2.19-.766 5-1.841-2.05.28-4.24 1.891-4.13.557l-5.46 1.726s-5.19 6.623-.56 4.181" style="fill:#dbdcdc" transform="matrix(1.69562 -.48416 -.43422 -1.52072 -8630.02 4048.93)"/><g transform="translate(-3931.822 33.766)scale(.79861)"><path d="M5332.73 441.413c59.2-25.321 110.92-1.797 123.47 43.716 12.56 45.513 2.89 60.569-1.82 87.249s-3.29 53.171-38.92 64.809c-25.53 8.342-55.74-3.688-75.46-16.84-15.56-10.38-51.28-5.468-71.46-58.504-21.52-56.562 46.75-112.972 64.19-120.43" style="fill:#dbdcdc"/><clipPath id="g"><path d="M5332.73 441.413c59.2-25.321 110.92-1.797 123.47 43.716 12.56 45.513 2.89 60.569-1.82 87.249s-3.29 53.171-38.92 64.809c-25.53 8.342-55.74-3.688-75.46-16.84-15.56-10.38-51.28-5.468-71.46-58.504-21.52-56.562 46.75-112.972 64.19-120.43"/></clipPath><g clip-path="url(#g)"><path d="M5255.15 551.579c5.15 12.131 5.38 13.064 25.45 28.083 7.72 5.781 49.44.453 62.43 9.931s24.35 9.509 29.72 5.731c2.98-2.101 5.97-13.389 12.71-17.657s19.43-1.601 24.46-4.442c11.77-6.645 7.9-32.723 12.67-50.103 8.63-31.449 31.97-39.953 21.99-61.718-18.51-40.394-75.29-49.057-97.75-50.462-22.47-1.404-69.51 27.03-85.66 43.88-16.14 16.849-13.18 79.877-6.02 96.757" style="fill:#fb6740"/><path d="M5401.1 624.427c1.5-6.536 15.94-14.881 20.94-13.548s-.29 15.044-4.62 17.044-17.32.837-16.32-3.496" style="fill:#f27baa" transform="translate(-11.006 -14.369)"/><path d="M5409.48 617.219c4.09 4.527 11.15 3.252 13.93 1.402-2.91 2.805-10.95 3.044-13.03.288.6 2.185-1.57 7.901-4.31 8.791 1.72-1.815 4.34-7.467 3.41-10.481" style="fill:#272b30" transform="matrix(1.32361 0 0 1.46831 -1752.45 -291.155)"/><path d="M5411.19 563.045c-2.71 2.027-2.74-10.957.58-15.652 3.33-4.696 18-18.001 21.92-19.37-5.29 8.804-16.37 12.522-19.14 20.544-2.78 8.022-1.8 13.304-3.36 14.478" style="fill:#272b30"/><path d="M5411.19 563.045c-2.71 2.027-2.74-10.957.58-15.652 3.33-4.696 18-18.001 21.92-19.37-5.29 8.804-16.37 12.522-19.14 20.544-2.78 8.022-1.8 13.304-3.36 14.478" style="fill:#272b30" transform="scale(-1 1)rotate(56.51 1.946 -9445.588)"/><path d="M5398.38 596.369c-8.43-15.643-14.69-37.833-11.68-47.656 7.64-24.893 5.75-25.62 14.44-32.787 7.8-6.437-28.33-25.05-30.55-35.561-1.14-5.438 60.55-36.122 72.54-34.952s32.75 26.615 36.56 44.456c3.8 17.84 6.14 65.513 2.63 78.382s-12.58 35.178-26.03 46.251c-13.46 11.074-11.99 19.848-18.43 10.196-6.43-9.651-1.79-10.643-2.92-23.516-2.34-26.656-34.51-1.011-36.56-4.813m-107.31-111.182c11.74-1.076 60.84 51.187 66.71 63.526 5.88 12.339.56 7.23-22.37 8.414s-58.12-5.911-65.89-8.414 11.77-62.63 21.55-63.526" style="fill-opacity:.1"/></g></g><g transform="rotate(-13.378 2430.92 17234.574)scale(.79861)"><path d="M5307.62 476.381c-16.62-11.282-78.02-21.445-89.26-15.82-11.25 5.625 47.05 74.865 57.72 75.83 7.1.641 11.36-8.002 18.97-13.58 8.81-6.454 20.69-10.205 24.14-13.2 3.04-2.635 2.78-23.491-11.57-33.23" style="fill:#fb6740"/><clipPath id="h"><path d="M5307.62 476.381c-16.62-11.282-78.02-21.445-89.26-15.82-11.25 5.625 47.05 74.865 57.72 75.83 7.1.641 11.36-8.002 18.97-13.58 8.81-6.454 20.69-10.205 24.14-13.2 3.04-2.635 2.78-23.491-11.57-33.23"/></clipPath><g clip-path="url(#h)"><path d="M5275 532.347c3.43 2.179 7.34-5.604 14.66-10.924 8.57-6.227 20.48-10.41 21.72-11.337 2.29-1.717-84.07-44.059-88.65-44.059s47.76 63.457 52.27 66.32" style="fill:#dbdcdc"/><path d="M5291.1 485.129c-10.06-.14-42.35-5.242-69.96 0-27.61 5.241-24.9 6.193-21.7 11.091 8.43 12.869 50.89 44.879 71.95 52.493s31.18-34.945 35.62-37.986c4.45-3.042 5.39-13.805 4.22-16.379s-10.07-9.079-20.13-9.219" style="fill-opacity:.1" transform="rotate(13.378 5325.373 569.065)"/></g></g><g transform="rotate(-9.502 2509.48 24056.974)scale(.79861)"><path d="M5366.78 487.672c1.3 2.169 21.07-1.532 37.38 1.334 15.17 2.664 26.79 12.074 31.62 9.762 10.02-4.798 12.1-87.135-3-93.693-8.19-3.554-51.17 39.302-61.48 51.781-9.88 11.947-7.57 25.693-4.52 30.816" style="fill:#fb6740"/><clipPath id="i"><path d="M5366.78 487.672c1.3 2.169 21.07-1.532 37.38 1.334 15.17 2.664 26.79 12.074 31.62 9.762 10.02-4.798 12.1-87.135-3-93.693-8.19-3.554-51.17 39.302-61.48 51.781-9.88 11.947-7.57 25.693-4.52 30.816"/></clipPath><g clip-path="url(#i)"><path d="M5372.72 485.129c-8.5-22.116 38.06-88.249 44.81-89.374s27.22-.675 31.49 1.349c4.28 2.025 28.57 64.784 26.77 70.408s-46.34 31.492-51.51 29.693c-5.18-1.8-43.05 10.04-51.56-12.076" style="fill:#e25d3a" transform="rotate(9.502 5349.563 484.73)"/><path d="M5375.09 483.135c-1.52 3.517 12.73.655 27.8 2.278 11.95 1.287 25.84 9.223 27.73 8.271 10.91-5.475 11.56-83.407 2.6-82.57-13.06 1.218-46.08 44.136-58.13 72.021" style="fill:#dbdcdc"/></g></g><path d="M5422.14 602.424c11.63-9.363 17.78-25.336 20.31-37.64-1.79 12.908-7.68 28.366-20.31 37.64" style="fill:#272b30" transform="matrix(1.2452 -.0111 .00878 .98417 -6353.855 -23.083)"/><path d="M5422.14 602.424c11.63-9.363 17.78-25.336 20.31-37.64-2.55 13.759-8.36 29.438-20.31 37.64" style="fill:#272b30" transform="matrix(1.18279 .38941 -.30778 .93484 -5823.362 -2161.988)"/><path d="M5422.14 602.424c11.63-9.363 17.78-25.336 20.31-37.64-1.97 12.497-7.66 28.06-20.31 37.64" style="fill:#272b30" transform="matrix(1.1212 .48652 -.33938 .7821 -5469.634 -2591.968)"/><path d="M5422.14 602.424c11.63-9.363 17.78-25.336 20.31-37.64-1.71 12.864-7.51 28.348-20.31 37.64" style="fill:#272b30" transform="matrix(-.43355 .95043 .84091 .2605 2209.976 -4781.062)"/><path d="M5422.14 602.424c11.63-9.363 17.78-25.336 20.31-37.64-1.99 12.926-7.89 28.43-20.31 37.64" style="fill:#272b30" transform="matrix(-.06886 1.00593 .90642 .00543 195.812 -4925.099)"/><path d="M5422.14 602.424c11.63-9.363 17.78-25.336 20.31-37.64-2.19 13.119-8.06 28.702-20.31 37.64" style="fill:#272b30" transform="matrix(.03538 .98382 .78621 -.05815 -294.34 -4763.444)"/><g transform="translate(-3931.82 33.766)scale(.79861)"><path d="M5841.07 448.615c40.38 78.509 21.6 211.484-50.53 268.564-111.44 88.191-210.75 51.781-237.15 128.709-12.49 36.379-17 58.5-20.5 72.5s-40 30.5-43.5 11 7.5-76.5 23-101 59.48-75.565 112.98-77.565 119.71-42.324 140.21-66.824 63.04-92.567 42.38-133.691c-12.18-24.242 19.77-127.645 33.11-101.693" style="fill:#dbdcdc"/><clipPath id="j"><path d="M5841.07 448.615c40.38 78.509 21.6 211.484-50.53 268.564-111.44 88.191-210.75 51.781-237.15 128.709-12.49 36.379-17 58.5-20.5 72.5s-40 30.5-43.5 11 7.5-76.5 23-101 59.48-75.565 112.98-77.565 119.71-42.324 140.21-66.824 63.04-92.567 42.38-133.691c-12.18-24.242 19.77-127.645 33.11-101.693"/></clipPath><g clip-path="url(#j)"><path d="M5508.1 814.217c27.1-7.07 38.3-14.729 59.51 4.124s17.67 38.884 6.48 73.645-69.52 58.915-93.09 48.9c-23.56-10.016 0-119.599 27.1-126.669" style="fill:#fb6740"/><path d="M5798.91 677.455c36.65-31.541-34.77-202.074-16.49-257.826s63.19-32.903 95.35 3.199c32.15 36.102 20.63 157.803 16.06 189.792s-163.05 196.82-216.97 202.761c-53.93 5.94-71.13-6.111-88.49 41.873-17.37 47.984-47.07 85-51.64 85.914s-30.16-.457-26.96-30.161 10.51-62.608 21.93-79.516c11.43-16.909 18.31-28.159 41.79-42.588 26.8-16.469 57.67-23.963 82.8-24.42 25.14-.457 114.28-64.638 142.62-89.028" style="fill-opacity:.1"/></g></g><path d="m5195.44 814.671 4.78-2.657 419.61 182.041-4.98 3.823z" style="fill:#fb6740" transform="translate(-3931.82 33.766)scale(.79861)"/><path d="M5141.45 2235.49c12.38-3.98 23.28-3.54 27.7-2.06.19.06 50.29.02 50.29.02l-.74-5.45 5.34-.6-2.2-23.27-11.45-5.1-1.09-6.46 6.39-2.1-47.53-25.47 16.07 4.45 35.73 22.03-6.37 2.22 1.8 7.41 9.39 4.4 3.25 22.97-5.22 2.3.35 4.07s-49.64 4.56-57 3.39c-7.36-1.18-14.1 4.17-17.05 5.94-2.94 1.77-20.03-4.72-7.66-8.69" style="fill-opacity:.1" transform="translate(-4941 -1518)"/><g transform="translate(-3931.82 33.766)scale(.79861)"><path d="m5227.9 773.304-20-5.418c-13.01 12.171-28.83 26.231-21.11 38.751 8.03 13.034 12.56 34.721-7.23 45.833-9.09 5.11-28.05 13.889-28.05 13.889l20.28-1.111-1.11 9.445s17.81-8.928 24.76-15.834c12.77-12.685 10.49-35.534 5.79-46.845-5.85-14.084 9.46-28.077 26.67-38.71" style="fill:#fb6740"/><clipPath id="k"><path d="m5227.9 773.304-20-5.418c-13.01 12.171-28.83 26.231-21.11 38.751 8.03 13.034 12.56 34.721-7.23 45.833-9.09 5.11-28.05 13.889-28.05 13.889l20.28-1.111-1.11 9.445s17.81-8.928 24.76-15.834c12.77-12.685 10.49-35.534 5.79-46.845-5.85-14.084 9.46-28.077 26.67-38.71"/></clipPath><g clip-path="url(#k)"><path d="M5182.82 802.459c2.18.637 13.29 3.914 18.84 4.733s8.74 14.905 3.64 14.097-17.75-2.992-20.75-3.903c-3.01-.91-3.92-15.564-1.73-14.927" style="fill-opacity:.1"/></g></g></svg>